<svg width="16" height="15" viewBox="0 0 16 15" fill="none" xmlns="http://www.w3.org/2000/svg">
<path d="M11.5743 0H4.85321C2.57078 0 0.713867 1.857 0.713867 4.13943V10.8605C0.713867 13.143 2.57078 14.9999 4.85321 14.9999H11.5743C13.8569 14.9999 15.7138 13.1429 15.7138 10.8605V4.13943C15.7139 1.857 13.8569 0 11.5743 0ZM14.383 10.8605C14.383 12.4092 13.123 13.669 11.5743 13.669H4.85321C3.30462 13.6691 2.04473 12.4092 2.04473 10.8605V4.13943C2.04473 2.59084 3.30462 1.33086 4.85321 1.33086H11.5743C13.1229 1.33086 14.3829 2.59084 14.3829 4.13943V10.8605H14.383Z" fill="#CF446F"/>
<path d="M8.21385 3.63501C6.08261 3.63501 4.34875 5.36886 4.34875 7.50011C4.34875 9.63127 6.08261 11.365 8.21385 11.365C10.3451 11.365 12.0789 9.63127 12.0789 7.50011C12.0789 5.36886 10.3451 3.63501 8.21385 3.63501ZM8.21385 10.0341C6.81653 10.0341 5.67962 8.89734 5.67962 7.50002C5.67962 6.10261 6.81644 4.96579 8.21385 4.96579C9.61126 4.96579 10.7481 6.10261 10.7481 7.50002C10.7481 8.89734 9.61117 10.0341 8.21385 10.0341Z" fill="#CF446F"/>
<path d="M12.241 2.50659C11.9846 2.50659 11.7327 2.6104 11.5516 2.79228C11.3696 2.97328 11.265 3.22526 11.265 3.48256C11.265 3.73906 11.3697 3.99095 11.5516 4.17283C11.7326 4.35383 11.9846 4.45853 12.241 4.45853C12.4983 4.45853 12.7494 4.35383 12.9313 4.17283C13.1131 3.99095 13.2169 3.73897 13.2169 3.48256C13.2169 3.22526 13.1131 2.97328 12.9313 2.79228C12.7503 2.6104 12.4983 2.50659 12.241 2.50659Z" fill="#CF446F"/>
</svg>
