<svg width="18" height="17" viewBox="0 0 18 17" fill="none" xmlns="http://www.w3.org/2000/svg">
<path fill-rule="evenodd" clip-rule="evenodd" d="M0.467529 7.18696C0.467529 11.1506 3.73085 14.3753 7.74213 14.3753C9.53692 14.3753 11.182 13.7296 12.452 12.6609L16.2887 16.7914C16.4103 16.9225 16.5767 16.9889 16.7434 16.9889C16.8925 16.9889 17.0423 16.9356 17.1608 16.8286C17.4119 16.6006 17.4283 16.2148 17.1982 15.9667L13.3221 11.7937C14.3793 10.5453 15.0164 8.93828 15.0164 7.18696C15.0164 3.22356 11.753 -0.00109863 7.74213 -0.00109863C3.73085 -0.00109863 0.467529 3.22356 0.467529 7.18696ZM1.7017 7.18696C1.7017 3.89597 4.41132 1.21818 7.74213 1.21818C11.0725 1.21818 13.7822 3.89597 13.7822 7.18696C13.7822 10.4782 11.0725 13.1557 7.74213 13.1557C4.41132 13.1557 1.7017 10.4782 1.7017 7.18696Z" fill="#909AAB"/>
</svg>
