<svg width="24" height="17" viewBox="0 0 24 17" fill="none" xmlns="http://www.w3.org/2000/svg">
<path fill-rule="evenodd" clip-rule="evenodd" d="M1.75821 16.6123C0.984288 13.9889 -1.66274 4.95209 1.55865 1.64853C4.54451 -1.41407 7.75095 0.676914 8.65012 1.35709C9.54882 2.03726 10.8476 2.86338 11.7463 2.81473C12.645 2.76608 11.8463 3.5922 11.8463 3.5922C11.2471 3.6163 10.1269 3.58038 8.05098 2.03772C5.94934 0.475954 3.79582 0.567341 2.25827 2.32915C0.680515 4.13598 0.38936 9.53462 2.75692 16.1268C3.00695 16.831 2.43258 17.4144 1.75821 16.6123Z" fill="#CC2C2A"/>
<path fill-rule="evenodd" clip-rule="evenodd" d="M21.4731 16.6122C22.248 13.9842 24.8974 4.93328 21.6731 1.62426C18.684 -1.44334 15.4743 0.650831 14.5747 1.33237C13.675 2.01345 12.3749 2.84093 11.4753 2.79229C10.5756 2.74364 11.3752 3.57067 11.3752 3.57067C11.9753 3.59522 13.0965 3.55884 15.1743 2.01345C17.2783 0.448961 19.4341 0.540803 20.9731 2.30534C22.5522 4.11535 22.8429 9.52263 20.473 16.1252C20.2235 16.8313 20.7983 17.4151 21.4731 16.6122Z" fill="#CC2C2A"/>
<path fill-rule="evenodd" clip-rule="evenodd" d="M4.68716 16.6466C4.14458 14.907 2.28969 8.91643 4.54696 6.72587C6.63925 4.69536 8.88671 6.08162 9.51668 6.53264C10.1467 6.98366 11.0566 7.53108 11.6866 7.4988C12.3165 7.46651 11.7567 8.01393 11.7567 8.01393C11.3365 8.02984 10.5518 8.00574 9.09701 6.98321C7.62395 5.94795 6.1149 6.00842 5.0372 7.17644C3.93194 8.37447 3.72818 11.9536 5.38724 16.3242C5.56203 16.7916 5.15965 17.1781 4.68716 16.6466Z" fill="#4456A1"/>
<path fill-rule="evenodd" clip-rule="evenodd" d="M18.5033 16.6462C19.0463 14.9039 20.9031 8.90333 18.6435 6.70959C16.5489 4.67589 14.2995 6.06443 13.6691 6.51591C13.0386 6.96739 12.1278 7.51616 11.4969 7.48388C10.8664 7.4516 11.4268 7.99992 11.4268 7.99992C11.8474 8.01583 12.633 7.99174 14.0892 6.96739C15.5637 5.9303 17.0741 5.99123 18.1532 7.16107C19.2599 8.36138 19.4637 11.9459 17.8027 16.3234C17.6275 16.7912 18.0303 17.1786 18.5033 16.6462Z" fill="#4456A1"/>
<path fill-rule="evenodd" clip-rule="evenodd" d="M5.45351 12.3843C5.04178 9.42267 6.44241 6.22868 9.04925 8.3033C7.88183 8.09688 5.69606 7.90138 5.45351 12.3843Z" fill="#4456A1"/>
</svg>
