<svg width="18" height="11" viewBox="0 0 18 11" fill="none" xmlns="http://www.w3.org/2000/svg">
<path d="M17.5378 9.33004C17.5172 9.28568 17.498 9.24888 17.4802 9.2194C17.1852 8.68818 16.6216 8.03616 15.7896 7.26313L15.772 7.24543L15.7632 7.23675L15.7543 7.22785H15.7454C15.3678 6.8679 15.1287 6.62587 15.0285 6.50195C14.8453 6.26591 14.8043 6.02698 14.9044 5.78489C14.9751 5.60198 15.2409 5.2157 15.701 4.62552C15.9431 4.31275 16.1347 4.06207 16.2763 3.8732C17.2972 2.51596 17.7398 1.64866 17.604 1.27096L17.5513 1.1827C17.5159 1.12957 17.4244 1.08095 17.277 1.03662C17.1294 0.992383 16.9406 0.985067 16.7104 1.01455L14.1613 1.03216C14.12 1.01753 14.0611 1.01889 13.9842 1.03662C13.9075 1.05436 13.8691 1.06325 13.8691 1.06325L13.8248 1.08542L13.7896 1.11205C13.76 1.12966 13.7276 1.16063 13.6921 1.2049C13.6569 1.24901 13.6274 1.30079 13.6039 1.35978C13.3263 2.07378 13.0108 2.73762 12.6567 3.35126C12.4383 3.71717 12.2378 4.03429 12.0547 4.30279C11.8718 4.57121 11.7184 4.76896 11.5946 4.89573C11.4705 5.02262 11.3586 5.12427 11.2581 5.20106C11.1578 5.27789 11.0812 5.31034 11.0281 5.29847C10.975 5.2866 10.9249 5.27482 10.8775 5.26304C10.7949 5.2099 10.7285 5.13764 10.6785 5.04618C10.6282 4.95473 10.5943 4.83962 10.5766 4.70095C10.559 4.56218 10.5486 4.44283 10.5456 4.34248C10.5429 4.24225 10.5441 4.10048 10.5501 3.91757C10.5562 3.73457 10.559 3.61075 10.559 3.54583C10.559 3.32156 10.5634 3.07817 10.5722 2.81559C10.5811 2.553 10.5883 2.34495 10.5943 2.19168C10.6004 2.03825 10.6032 1.87593 10.6032 1.7048C10.6032 1.53367 10.5927 1.39946 10.5722 1.30206C10.5518 1.20478 10.5206 1.11034 10.4795 1.0188C10.4381 0.927342 10.3775 0.856597 10.298 0.806374C10.2184 0.756213 10.1193 0.716407 10.0015 0.686832C9.68873 0.616055 9.29045 0.577768 8.80649 0.571816C7.709 0.560035 7.00381 0.630905 6.69106 0.784332C6.56715 0.849156 6.45502 0.937727 6.35476 1.04977C6.24852 1.17963 6.2337 1.2505 6.31039 1.26216C6.66449 1.3152 6.91517 1.44209 7.06271 1.6427L7.11588 1.74901C7.15723 1.82571 7.19853 1.96149 7.23985 2.15618C7.28112 2.35087 7.30775 2.56624 7.31947 2.80216C7.34892 3.23299 7.34892 3.60179 7.31947 3.90858C7.28992 4.21549 7.26202 4.45442 7.23539 4.62555C7.20876 4.79668 7.16895 4.93535 7.11588 5.04153C7.06271 5.14774 7.02734 5.21266 7.0096 5.23622C6.9919 5.25978 6.97715 5.27463 6.96543 5.28046C6.88873 5.30985 6.80896 5.32482 6.7264 5.32482C6.64372 5.32482 6.54346 5.28347 6.42547 5.20082C6.30751 5.11817 6.18509 5.00464 6.0582 4.86005C5.93131 4.71542 5.7882 4.51333 5.62883 4.25372C5.46957 3.99411 5.30433 3.68729 5.1332 3.33325L4.99162 3.0765C4.90311 2.91132 4.7822 2.67081 4.62878 2.35518C4.47526 2.03943 4.33956 1.734 4.2216 1.43896C4.17445 1.31505 4.10361 1.22071 4.00921 1.15579L3.96491 1.12916C3.93546 1.1056 3.88818 1.08058 3.82332 1.05392C3.75838 1.02729 3.69061 1.00819 3.61974 0.996444L1.19451 1.01405C0.946688 1.01405 0.778535 1.0702 0.689995 1.18233L0.65456 1.23537C0.636858 1.26492 0.62793 1.3121 0.62793 1.37705C0.62793 1.44197 0.645632 1.52164 0.681066 1.61598C1.0351 2.44806 1.42011 3.25054 1.83609 4.02353C2.25207 4.79653 2.61355 5.41919 2.92031 5.89097C3.22713 6.3631 3.53988 6.80868 3.85854 7.22751C4.17721 7.6465 4.38814 7.915 4.49135 8.03297C4.59467 8.15114 4.67584 8.2395 4.73483 8.29849L4.95615 8.51089C5.09777 8.65253 5.30573 8.82217 5.58012 9.01981C5.85458 9.21757 6.15842 9.41226 6.49182 9.60419C6.82527 9.79581 7.21319 9.95218 7.6558 10.0731C8.09835 10.1942 8.52908 10.2428 8.94807 10.2193H9.96598C10.1724 10.2015 10.3288 10.1366 10.4351 10.0245L10.4703 9.98018C10.494 9.94496 10.5162 9.89024 10.5367 9.81661C10.5574 9.74286 10.5677 9.6616 10.5677 9.57322C10.5616 9.31953 10.5809 9.09089 10.6251 8.88734C10.6692 8.68384 10.7195 8.53042 10.7757 8.42709C10.8319 8.32385 10.8953 8.23674 10.9659 8.16612C11.0367 8.09534 11.0871 8.05247 11.1167 8.03771C11.1461 8.02286 11.1695 8.01278 11.1872 8.00674C11.3288 7.95955 11.4955 8.00525 11.6875 8.14404C11.8793 8.28271 12.0592 8.45394 12.2274 8.65743C12.3956 8.86111 12.5977 9.08962 12.8337 9.34331C13.0698 9.59709 13.2763 9.78573 13.4533 9.90983L13.6302 10.016C13.7484 10.0869 13.9018 10.1518 14.0907 10.2108C14.2792 10.2698 14.4444 10.2845 14.5862 10.2551L16.852 10.2197C17.0761 10.2197 17.2505 10.1826 17.3742 10.109C17.4981 10.0352 17.5718 9.95398 17.5955 9.86559C17.6192 9.77711 17.6205 9.67673 17.6 9.5645C17.579 9.45256 17.5584 9.37428 17.5378 9.33004Z" fill="#5B80B4"/>
</svg>
